<?xml version="1.0" encoding="iso-8859-1"?>
<!-- Uploaded to: SVG Repo, www.svgrepo.com, Generator: SVG Repo Mixer Tools -->
<svg height="800px" width="800px" version="1.1" id="Layer_1" xmlns="http://www.w3.org/2000/svg" xmlns:xlink="http://www.w3.org/1999/xlink" 
	 viewBox="0 0 511.999 511.999" xml:space="preserve">
<path style="fill:#FEE187;" d="M495.618,417.311c-18.739,10.738-38.549,16.176-59.236,16.176h-0.033
	c-45.583,0-88.288-33.008-140.129-84.837L158.446,210.91c-40.916-40.961-67.652-68.803-76.277-106.055
	c-7.251-31.321-2.964-60.846,12.695-88.168c-6.953,2.087-13.336,5.873-18.622,11.159L53.344,50.7
	C17.14,86.902,8.119,123.851,18.469,168.555c8.625,37.252,33.779,76.938,74.693,117.898l132.645,132.612
	c51.841,51.829,101.257,78.121,146.84,78.121h0.035c33.565,0,60.726-10.16,88.833-38.268l22.899-22.899
	C489.803,430.648,493.554,424.199,495.618,417.311z"/>
<g>
	<path style="fill:#FFC61B;" d="M497.316,443.428c16.149-18.333,19.348-44.555,7.747-66.465
		c-18.949-35.833-77.547-71.79-89.148-78.662c-0.067-0.039-0.133-0.078-0.201-0.117c-10.257-5.858-21.191-8.954-31.619-8.954
		c-16.329,0-30.447,7.693-38.933,21.158c-9.943,11.854-18.011,20.658-20.232,22.688c-6.518,4.354-11.869,6.658-16.898,6.879
		c-0.522-0.52-1.041-1.031-1.564-1.555L168.701,200.668c-39.926-39.969-64.782-66.138-72.411-99.08
		c-5.882-25.403-3.118-49.622,8.166-72.096c1.067-0.115,2.144-0.183,3.232-0.183c4.863,0,9.741,1.209,14.06,3.471
		c21.313,11.27,45.784,44.7,61.581,72.226c0.186,0.323,0.33,0.574,0.432,0.751c4.576,8.083,6.202,16.281,4.457,22.523
		c-1.117,4.016-3.602,7.196-7.385,9.451c-6.874,4.102-9.124,12.998-5.024,19.872c4.102,6.876,12.999,9.124,19.872,5.024
		c10.251-6.115,17.327-15.307,20.456-26.561c3.868-13.833,1.304-29.712-7.219-44.709c-0.033-0.059-0.1-0.172-0.133-0.23
		l-0.316-0.548c-11.08-19.309-40.39-66.088-73.222-83.45c-8.502-4.454-18.032-6.808-27.561-6.808
		c-13.202,0-25.735,4.329-36.007,12.286c-0.146,0.113-0.291,0.228-0.436,0.341c-0.744,0.587-1.473,1.193-2.191,1.818
		c-0.187,0.162-0.377,0.32-0.562,0.486c-0.846,0.755-1.68,1.529-2.487,2.338L43.095,40.451C4.78,78.765-7.531,120.51,4.349,171.825
		c0.578,2.496,1.223,4.999,1.935,7.511c0.442,1.561,0.92,3.128,1.415,4.695c8.501,26.952,24.641,54.782,48.202,83.143
		c0.938,1.128,1.887,2.257,2.848,3.387c1.022,1.202,2.055,2.405,3.103,3.607c1.52,1.745,3.067,3.492,4.642,5.239
		c3.977,4.413,8.119,8.837,12.45,13.272c1.309,1.339,2.632,2.681,3.973,4.022l132.645,132.612
		c5.125,5.124,10.234,10.011,15.326,14.66c49.221,44.945,96.838,67.704,141.761,67.704h0.033c39.123,0,69.681-13.111,99.083-42.513
		l22.881-22.881c0.803-0.8,1.568-1.625,2.318-2.46C497.083,443.694,497.2,443.562,497.316,443.428z M341.703,356.727
		c0.101-0.068,0.203-0.139,0.303-0.21c5.476-3.918,21.338-22.684,26.068-28.342c0.496-0.594,0.944-1.226,1.339-1.891
		c3.226-5.428,8.028-8.066,14.679-8.066c5.366,0,11.293,1.758,17.149,5.084c23.1,13.691,65.506,43.216,78.201,67.219
		c2.891,5.461,3.958,11.444,3.352,17.224c-14.844,7.463-30.431,11.249-46.448,11.249c-33.601,0-67.009-21.764-104.697-56.357
		C334.964,360.988,338.313,359.026,341.703,356.727z M148.198,221.16L285.971,358.9c53.482,53.47,99.522,89.081,150.411,89.081
		c5.596,0,11.144-0.357,16.64-1.065l-1.754,1.754c-24.167,24.165-46.933,34.022-78.586,34.022h-0.033
		c-41.604,0-87.561-24.855-136.593-73.877L103.417,276.209c-38.992-39.036-62.823-76.356-70.828-110.923
		c-9.663-41.739-0.393-72.944,30.993-104.327l1.706-1.702c-2.023,15.834-1.109,32.159,2.761,48.868
		C77.456,148.757,104.631,177.546,148.198,221.16z"/>
	<path style="fill:#FFC61B;" d="M358.952,230.529c-0.694,0-1.396-0.051-2.103-0.152c-7.921-1.151-13.41-8.506-12.259-16.427
		c1.874-12.899-2.326-25.576-11.527-34.773c-9.199-9.201-21.874-13.402-34.773-11.527c-7.916,1.154-15.276-4.337-16.427-12.259
		s4.337-15.276,12.259-16.427c21.723-3.157,43.938,4.213,59.44,19.714c15.5,15.501,22.87,37.721,19.714,59.44
		C372.228,225.331,366.032,230.529,358.952,230.529z"/>
	<path style="fill:#FFC61B;" d="M414.957,226.155c-0.362,0-0.728-0.013-1.096-0.041c-7.983-0.597-13.97-7.551-13.373-15.533
		c2.004-26.821-7.741-53.099-26.737-72.093c-18.995-18.995-45.274-28.74-72.093-26.735c-8.005,0.594-14.939-5.39-15.534-13.373
		c-0.597-7.983,5.39-14.937,13.373-15.534c35.24-2.636,69.781,10.175,94.753,35.144c24.97,24.97,37.779,59.505,35.146,94.751
		C428.826,220.354,422.471,226.155,414.957,226.155z"/>
</g>
</svg>